<?xml version="1.0" standalone="no"?>
<!DOCTYPE svg PUBLIC "-//W3C//DTD SVG 20010904//EN"
 "http://www.w3.org/TR/2001/REC-SVG-20010904/DTD/svg10.dtd">
<svg version="1.0" xmlns="http://www.w3.org/2000/svg"
 width="1080.000000pt" height="1080.000000pt" viewBox="0 0 1080.000000 1080.000000"
 preserveAspectRatio="xMidYMid meet">

<g transform="translate(0.000000,1080.000000) scale(0.100000,-0.100000)"
fill="#000000" stroke="none">
<path d="M0 5400 l0 -5400 5400 0 5400 0 0 5400 0 5400 -5400 0 -5400 0 0
-5400z m5525 1485 c278 -59 476 -287 494 -570 l6 -100 210 -5 c192 -5 213 -7
252 -27 54 -30 100 -86 118 -148 15 -49 196 -1808 195 -1896 0 -96 -77 -195
-174 -224 -74 -22 -2378 -22 -2452 0 -101 30 -174 128 -174 233 0 55 175 1813
186 1867 15 71 64 134 134 171 30 16 66 20 245 24 l210 5 6 100 c11 170 72
298 196 414 149 141 350 198 548 156z"/>
<path d="M5330 6743 c-113 -18 -232 -90 -302 -180 -63 -84 -90 -158 -96 -265
l-4 -88 471 0 471 0 0 69 c0 125 -52 245 -144 334 -100 97 -265 152 -396 130z"/>
<path d="M4370 6032 c-16 -16 -31 -44 -34 -63 -10 -57 -186 -1773 -186 -1812
0 -26 8 -46 29 -69 l29 -33 1190 0 c1176 0 1190 0 1212 20 12 11 26 31 31 43
6 16 -14 249 -61 715 -39 381 -80 784 -90 897 -26 266 -26 268 -60 302 l-28
28 -191 0 -191 0 0 -200 c0 -187 -1 -201 -20 -220 -30 -30 -83 -27 -109 6 -20
25 -21 40 -21 220 l0 194 -470 0 -470 0 0 -195 c0 -195 0 -196 -25 -220 -30
-31 -77 -33 -105 -5 -19 19 -20 33 -20 220 l0 200 -191 0 -191 0 -28 -28z"/>
</g>
</svg>
