<?xml version="1.0" standalone="no"?>
<!DOCTYPE svg PUBLIC "-//W3C//DTD SVG 20010904//EN"
 "http://www.w3.org/TR/2001/REC-SVG-20010904/DTD/svg10.dtd">
<svg version="1.0" xmlns="http://www.w3.org/2000/svg"
 width="1080.000000pt" height="1080.000000pt" viewBox="0 0 1080.000000 1080.000000"
 preserveAspectRatio="xMidYMid meet">

<g transform="translate(0.000000,1080.000000) scale(0.100000,-0.100000)"
fill="#000000" stroke="none">
<path d="M0 5400 l0 -5400 5400 0 5400 0 0 5400 0 5400 -5400 0 -5400 0 0
-5400z m5680 1421 c287 -57 530 -188 741 -400 216 -215 347 -463 405 -761 25
-131 25 -389 0 -520 -58 -298 -189 -546 -405 -761 -215 -216 -463 -347 -761
-405 -131 -25 -389 -25 -520 0 -298 58 -546 189 -761 405 -216 215 -347 463
-405 761 -25 131 -25 389 0 520 58 298 189 546 405 761 246 247 526 379 891
423 74 9 319 -5 410 -23z"/>
<path d="M5260 6634 c-129 -24 -190 -38 -257 -60 -358 -120 -657 -419 -777
-777 -48 -144 -61 -230 -61 -397 0 -167 13 -253 61 -397 120 -358 419 -657
777 -777 144 -48 230 -61 397 -61 167 0 253 13 397 61 358 120 657 419 777
777 48 144 61 230 61 397 0 167 -13 253 -61 397 -121 359 -421 659 -779 777
-44 14 -111 33 -150 42 -68 15 -334 27 -385 18z m190 -419 c16 -8 34 -24 40
-34 6 -13 10 -151 10 -378 l0 -358 260 -260 c230 -231 260 -264 260 -292 0
-69 -44 -113 -112 -113 -29 0 -60 28 -320 288 l-288 287 0 403 c0 256 4 410
10 422 13 24 57 49 88 50 13 0 36 -7 52 -15z"/>
</g>
</svg>
