<?xml version="1.0" standalone="no"?>
<!DOCTYPE svg PUBLIC "-//W3C//DTD SVG 20010904//EN"
 "http://www.w3.org/TR/2001/REC-SVG-20010904/DTD/svg10.dtd">
<svg version="1.0" xmlns="http://www.w3.org/2000/svg"
 width="1080.000000pt" height="1080.000000pt" viewBox="0 0 1080.000000 1080.000000"
 preserveAspectRatio="xMidYMid meet">

<g transform="translate(0.000000,1080.000000) scale(0.100000,-0.100000)"
fill="#000000" stroke="none">
<path d="M0 5400 l0 -5400 5400 0 5400 0 0 5400 0 5400 -5400 0 -5400 0 0
-5400z m6485 1300 c45 -17 77 -40 126 -89 90 -90 113 -149 114 -286 0 -94 -2
-105 -34 -170 -32 -66 -88 -124 -934 -972 -495 -496 -912 -907 -927 -913 -14
-6 -104 -33 -200 -60 l-175 -49 375 0 c278 -1 379 -4 388 -13 16 -16 15 -53
-2 -67 -9 -8 -167 -10 -571 -9 -510 3 -559 4 -568 20 -9 13 12 99 87 370 54
194 104 364 111 378 25 46 1796 1805 1849 1836 27 15 70 34 95 41 67 19 193
11 266 -17z m-647 -2552 c7 -7 12 -21 12 -33 0 -43 -12 -45 -265 -45 -253 0
-265 2 -265 45 0 43 12 45 265 45 174 0 244 -3 253 -12z"/>
<path d="M6250 6631 c-37 -12 -110 -50 -110 -59 0 -9 423 -432 432 -432 4 0
20 24 34 53 82 160 1 363 -169 426 -58 21 -139 26 -187 12z"/>
<path d="M6007 6442 l-57 -57 218 -218 217 -217 60 60 60 60 -215 215 c-118
118 -217 215 -220 215 -3 0 -31 -26 -63 -58z"/>
<path d="M5855 6290 l-29 -31 217 -217 217 -217 30 30 30 30 -218 218 -218
218 -29 -31z"/>
<path d="M5090 5525 l-665 -665 60 0 60 0 500 500 c335 335 507 500 520 500
27 0 45 -18 45 -44 0 -14 -171 -192 -506 -527 l-506 -506 -14 -103 c-8 -57
-13 -105 -11 -107 2 -2 50 3 107 11 l103 14 506 506 c335 335 513 506 527 506
26 0 44 -18 44 -44 0 -14 -166 -187 -501 -522 l-500 -500 3 -57 3 -57 665 665
665 665 -215 215 c-118 118 -217 215 -220 215 -3 0 -304 -299 -670 -665z"/>
<path d="M4345 4769 c-6 -19 -135 -482 -135 -487 0 -2 16 10 35 27 40 35 57
38 79 15 23 -23 20 -39 -16 -79 -30 -35 -30 -36 -7 -30 13 3 125 34 249 69
l225 63 -3 74 c-2 41 -5 75 -7 78 -3 2 -60 -4 -127 -13 -68 -9 -128 -16 -135
-16 -30 0 -34 39 -17 165 9 69 15 127 13 129 -2 2 -37 7 -76 11 -57 5 -74 4
-78 -6z"/>
</g>
</svg>
