<?xml version="1.0" standalone="no"?>
<!DOCTYPE svg PUBLIC "-//W3C//DTD SVG 20010904//EN"
 "http://www.w3.org/TR/2001/REC-SVG-20010904/DTD/svg10.dtd">
<svg version="1.0" xmlns="http://www.w3.org/2000/svg"
 width="1080.000000pt" height="1080.000000pt" viewBox="0 0 1080.000000 1080.000000"
 preserveAspectRatio="xMidYMid meet">

<g transform="translate(0.000000,1080.000000) scale(0.100000,-0.100000)"
fill="#000000" stroke="none">
<path d="M0 5400 l0 -5400 5400 0 5400 0 0 5400 0 5400 -5400 0 -5400 0 0
-5400z m6201 1361 c31 -32 38 -75 18 -114 -6 -12 -99 -111 -207 -219 l-195
-197 6 -37 c9 -54 47 -89 97 -89 38 0 47 7 243 203 201 199 204 202 246 202
60 0 101 -41 101 -101 0 -42 -3 -45 -202 -246 -196 -196 -203 -205 -203 -243
0 -50 35 -88 89 -97 l37 -6 197 195 c108 108 207 201 219 207 68 34 143 -13
143 -90 l0 -43 -312 -314 c-287 -287 -319 -316 -387 -350 -71 -35 -80 -37
-171 -37 -91 0 -100 2 -171 37 -60 30 -95 58 -186 150 -149 151 -178 209 -178
349 0 90 2 99 37 170 34 68 63 100 350 387 l314 312 43 0 c34 0 49 -6 72 -29z
m370 -2463 c30 -59 26 -143 -10 -200 -50 -79 -158 -110 -249 -73 -25 11 -195
174 -542 520 l-505 504 -100 36 c-245 90 -409 201 -653 440 -197 192 -273 287
-337 418 -64 132 -86 225 -92 388 -6 145 3 223 38 343 l21 69 1205 -1204 c681
-681 1213 -1220 1224 -1241z m-1628 672 c69 -33 130 -60 137 -60 7 0 10 -6 7
-14 -3 -8 -106 -164 -227 -348 -294 -441 -386 -538 -510 -538 -77 0 -114 22
-216 124 -102 102 -124 139 -124 216 0 121 100 218 500 484 162 108 298 196
301 196 3 0 63 -27 132 -60z"/>
</g>
</svg>
