<?xml version="1.0" standalone="no"?>
<!DOCTYPE svg PUBLIC "-//W3C//DTD SVG 20010904//EN"
 "http://www.w3.org/TR/2001/REC-SVG-20010904/DTD/svg10.dtd">
<svg version="1.0" xmlns="http://www.w3.org/2000/svg"
 width="1080.000000pt" height="1080.000000pt" viewBox="0 0 1080.000000 1080.000000"
 preserveAspectRatio="xMidYMid meet">

<g transform="translate(0.000000,1080.000000) scale(0.100000,-0.100000)"
fill="#000000" stroke="none">
<path d="M0 5400 l0 -5400 5400 0 5400 0 0 5400 0 5400 -5400 0 -5400 0 0
-5400z m5577 1418 c37 -26 129 -101 203 -168 94 -83 147 -123 173 -131 20 -5
112 -14 204 -19 424 -25 447 -48 473 -483 6 -107 15 -190 24 -210 7 -17 60
-84 116 -147 189 -211 230 -274 230 -357 0 -87 -51 -165 -248 -383 -46 -50
-90 -107 -98 -126 -9 -21 -18 -104 -25 -216 -16 -284 -40 -366 -123 -417 -48
-30 -159 -48 -363 -60 -102 -6 -185 -16 -205 -24 -18 -8 -73 -50 -121 -93
-231 -206 -304 -254 -388 -254 -80 0 -158 51 -385 253 -49 44 -101 85 -117 93
-19 10 -88 18 -210 25 -306 17 -385 43 -434 139 -29 58 -40 133 -53 353 -6
116 -15 187 -24 205 -8 15 -49 67 -93 116 -334 375 -334 401 -14 756 52 58
100 120 108 138 8 20 18 103 24 205 18 317 40 386 140 437 51 27 131 38 337
50 110 6 196 16 215 24 18 8 86 62 152 121 222 199 270 228 367 223 60 -3 73
-8 135 -50z"/>
<path d="M5368 6648 c-25 -18 -98 -80 -162 -138 -132 -118 -183 -155 -235
-170 -20 -6 -130 -17 -246 -25 -115 -8 -225 -19 -242 -25 -44 -16 -51 -45 -68
-300 -18 -275 -15 -269 -219 -492 -93 -103 -146 -175 -146 -199 0 -20 79 -121
204 -259 48 -52 100 -122 117 -156 29 -58 31 -70 44 -272 8 -116 19 -229 25
-251 14 -53 34 -58 265 -72 99 -5 203 -14 230 -20 74 -14 136 -54 275 -179
132 -119 199 -170 223 -170 20 0 95 59 227 178 129 116 191 157 265 171 28 6
131 15 230 20 228 14 251 20 265 69 5 20 17 134 25 252 14 204 16 218 45 275
19 38 78 114 159 204 72 80 138 160 148 178 17 32 17 34 -1 68 -10 19 -66 87
-124 152 -218 246 -207 222 -227 509 -8 120 -20 233 -25 250 -16 46 -43 53
-285 69 -115 8 -226 19 -246 25 -52 15 -101 51 -236 171 -134 120 -199 169
-223 169 -9 0 -37 -15 -62 -32z m-193 -633 c64 -33 122 -93 156 -163 20 -39
24 -62 24 -142 0 -89 -2 -99 -34 -158 -38 -70 -92 -120 -167 -154 -73 -34
-199 -33 -274 3 -80 37 -125 81 -162 157 -30 61 -33 75 -33 157 1 78 4 97 28
145 68 133 171 193 323 187 66 -3 92 -9 139 -32z m803 -167 c16 -16 22 -33 22
-67 l0 -46 -503 -502 -502 -503 -43 0 c-59 0 -92 33 -92 92 l0 43 493 493
c270 272 506 500 522 508 36 16 72 10 103 -18z m15 -652 c68 -35 117 -84 154
-156 25 -49 28 -65 28 -150 0 -89 -2 -99 -34 -158 -40 -74 -84 -115 -161 -151
-75 -36 -201 -37 -274 -3 -79 36 -132 86 -167 157 -93 189 -8 404 189 478 72
27 193 19 265 -17z"/>
<path d="M4976 5860 c-72 -22 -125 -112 -106 -179 31 -108 144 -156 231 -98
48 31 82 104 73 153 -9 48 -65 111 -112 124 -42 11 -47 11 -86 0z"/>
<path d="M5796 5040 c-41 -13 -94 -68 -106 -109 -21 -78 32 -167 115 -190 106
-29 214 80 186 187 -13 46 -65 99 -112 112 -39 11 -44 11 -83 0z"/>
</g>
</svg>
