<?xml version="1.0" standalone="no"?>
<!DOCTYPE svg PUBLIC "-//W3C//DTD SVG 20010904//EN"
 "http://www.w3.org/TR/2001/REC-SVG-20010904/DTD/svg10.dtd">
<svg version="1.0" xmlns="http://www.w3.org/2000/svg"
 width="1080.000000pt" height="1080.000000pt" viewBox="0 0 1080.000000 1080.000000"
 preserveAspectRatio="xMidYMid meet">

<g transform="translate(0.000000,1080.000000) scale(0.100000,-0.100000)"
fill="#000000" stroke="none">
<path d="M0 5400 l0 -5400 5400 0 5400 0 0 5400 0 5400 -5400 0 -5400 0 0
-5400z m7028 1111 c114 -58 141 -215 53 -315 -28 -32 -90 -57 -156 -63 -36 -3
-65 -9 -65 -14 0 -4 -14 -130 -30 -281 -29 -255 -37 -306 -55 -350 -6 -16 1
-18 80 -18 121 0 170 -14 221 -65 47 -48 66 -108 54 -172 -19 -106 -89 -163
-199 -163 -33 0 -62 -4 -65 -9 -3 -5 -19 -132 -36 -283 -16 -150 -37 -297 -45
-325 -21 -68 -69 -131 -124 -160 l-44 -23 -1215 0 c-1213 0 -1216 0 -1259 21
-53 26 -98 78 -122 144 -12 32 -30 155 -50 335 -18 156 -35 288 -37 292 -3 4
-32 8 -65 8 -110 0 -180 57 -199 163 -12 64 7 124 54 172 51 51 100 65 221 65
79 0 86 2 80 18 -18 44 -26 95 -55 350 -16 151 -30 277 -30 281 0 5 -29 11
-65 14 -132 12 -208 86 -208 202 0 53 26 117 59 146 59 51 -45 48 1672 49
1544 0 1594 -1 1630 -19z"/>
<path d="M3820 6380 c-11 -11 -20 -31 -20 -45 0 -14 9 -34 20 -45 20 -20 33
-20 1580 -20 1547 0 1560 0 1580 20 11 11 20 31 20 45 0 14 -9 34 -20 45 -20
20 -33 20 -1580 20 -1547 0 -1560 0 -1580 -20z"/>
<path d="M4105 5853 c32 -287 44 -337 89 -368 31 -22 2381 -22 2412 0 45 31
57 81 89 368 l31 277 -1326 0 -1326 0 31 -277z m531 139 c37 -24 39 -93 4
-112 -10 -6 -77 -10 -149 -10 -123 0 -131 1 -145 22 -22 31 -20 64 4 88 18 18
33 20 148 20 70 0 132 -4 138 -8z"/>
<path d="M3820 5310 c-11 -11 -20 -31 -20 -45 0 -14 9 -34 20 -45 20 -20 33
-20 1580 -20 1547 0 1560 0 1580 20 11 11 20 31 20 45 0 14 -9 34 -20 45 -20
20 -33 20 -1580 20 -1547 0 -1560 0 -1580 -20z"/>
<path d="M4078 5065 c-7 -8 58 -558 70 -585 15 -34 33 -55 59 -68 31 -17 2355
-17 2386 0 26 13 44 34 59 68 12 27 77 577 70 585 -7 6 -2637 6 -2644 0z m576
-157 c22 -31 20 -64 -4 -88 -18 -18 -33 -20 -150 -20 -117 0 -132 2 -150 20
-24 24 -26 67 -3 92 14 16 33 18 154 18 131 0 139 -1 153 -22z"/>
</g>
</svg>
