<?xml version="1.0" standalone="no"?>
<!DOCTYPE svg PUBLIC "-//W3C//DTD SVG 20010904//EN"
 "http://www.w3.org/TR/2001/REC-SVG-20010904/DTD/svg10.dtd">
<svg version="1.0" xmlns="http://www.w3.org/2000/svg"
 width="1080.000000pt" height="1080.000000pt" viewBox="0 0 1080.000000 1080.000000"
 preserveAspectRatio="xMidYMid meet">

<g transform="translate(0.000000,1080.000000) scale(0.100000,-0.100000)"
fill="#000000" stroke="none">
<path d="M0 5400 l0 -5400 5400 0 5400 0 0 5400 0 5400 -5400 0 -5400 0 0
-5400z m5179 1470 c22 -11 42 -24 46 -29 4 -7 15 -7 31 -1 41 16 135 11 179
-9 22 -10 55 -35 73 -55 30 -35 35 -37 50 -23 35 32 107 57 162 57 117 0 217
-79 244 -192 6 -25 11 -28 49 -28 88 0 165 -40 207 -110 24 -37 27 -39 60 -32
19 4 73 7 119 6 79 0 86 1 115 28 39 36 125 62 178 54 82 -13 153 -69 185
-143 14 -35 16 -126 3 -158 -5 -14 -2 -30 11 -50 70 -116 26 -273 -92 -327
-31 -15 -49 -29 -49 -40 0 -16 14 -18 158 -18 118 0 163 -3 177 -14 16 -12 18
-26 16 -112 -12 -565 -338 -1108 -842 -1404 l-89 -52 0 -149 c0 -136 -2 -149
-19 -159 -27 -14 -1475 -14 -1502 0 -17 10 -19 23 -19 159 l0 149 -89 52
c-504 296 -830 839 -842 1403 -2 66 1 101 10 110 6 6 46 14 89 17 l77 5 7 44
c15 90 98 181 181 198 19 4 27 12 27 27 0 52 33 129 73 173 40 43 102 83 130
83 8 0 19 11 25 24 18 40 69 92 109 110 l38 17 0 72 c1 80 21 131 72 179 67
63 179 85 263 52 40 -16 42 -16 56 5 33 47 83 82 144 102 39 13 136 2 179 -21z"/>
<path d="M5004 6776 c-38 -17 -71 -57 -79 -99 -14 -65 -57 -85 -97 -44 -60 61
-132 75 -193 37 -58 -36 -82 -124 -50 -180 18 -31 19 -74 3 -88 -7 -5 -32 -13
-55 -17 -23 -4 -54 -16 -68 -27 l-26 -21 40 -18 c22 -9 60 -36 84 -58 27 -25
54 -41 69 -41 34 0 114 -29 129 -46 19 -23 34 -16 48 22 16 45 63 98 99 113
28 12 29 14 28 89 -1 61 4 86 21 118 25 47 70 88 119 109 25 10 34 20 34 37 0
13 8 40 19 61 16 31 16 38 5 48 -22 18 -96 21 -130 5z"/>
<path d="M5291 6733 c-53 -27 -74 -63 -73 -122 1 -41 -2 -53 -20 -66 -13 -8
-33 -15 -46 -15 -36 0 -80 -27 -97 -60 -20 -39 -19 -78 5 -123 38 -71 22 -110
-52 -121 -94 -15 -133 -93 -91 -181 21 -44 13 -60 -43 -91 -49 -28 -75 -69
-72 -114 l3 -35 194 -3 194 -2 -37 44 c-39 48 -46 85 -20 110 18 19 38 20 65
6 37 -20 21 23 -36 94 -56 69 -68 109 -43 134 19 19 63 14 83 -8 26 -29 35
-25 35 17 0 29 -11 51 -55 108 -55 72 -67 109 -43 133 24 24 65 14 97 -24 l29
-37 12 44 c25 102 33 114 73 117 49 4 66 -27 49 -87 -17 -57 -16 -65 10 -47
33 23 65 20 84 -9 24 -36 11 -58 -71 -120 -68 -52 -75 -61 -81 -101 -3 -25 -4
-47 -2 -49 2 -3 20 6 38 20 57 42 100 29 100 -30 0 -26 -10 -39 -75 -88 l-75
-58 0 -50 c0 -27 3 -49 8 -49 4 1 23 14 42 30 46 40 96 41 110 4 12 -30 2 -53
-36 -83 l-27 -21 172 0 171 0 0 33 c-1 48 -32 106 -84 157 -50 48 -52 56 -31
116 20 60 5 107 -45 142 -49 34 -56 81 -15 108 31 20 50 80 41 127 -8 44 -53
84 -104 92 -53 9 -66 18 -73 55 -20 94 -95 140 -168 103z"/>
<path d="M5652 6684 c-29 -20 -28 -26 8 -47 16 -10 42 -39 57 -65 35 -59 39
-154 9 -220 -15 -33 -16 -45 -7 -56 11 -13 19 -11 64 10 59 27 148 32 207 10
34 -12 37 -11 76 24 22 20 48 41 58 47 15 8 16 14 6 32 -29 56 -113 76 -189
45 -30 -12 -44 -13 -60 -4 -22 11 -25 22 -22 87 5 87 -56 153 -140 153 -25 0
-55 -7 -67 -16z"/>
<path d="M6615 6418 c-11 -6 -37 -28 -57 -50 -34 -36 -40 -39 -70 -31 -18 4
-71 8 -118 8 -94 -1 -150 -20 -219 -75 l-38 -29 28 -57 c16 -31 29 -67 29 -80
0 -13 4 -24 9 -24 4 0 28 -18 53 -40 l45 -39 30 32 c29 30 31 39 37 132 7 104
16 125 57 125 32 0 49 -29 49 -81 l0 -49 66 45 c48 33 72 44 88 39 27 -8 32
-14 40 -41 8 -24 -10 -47 -69 -90 l-30 -22 32 -1 c56 0 84 -57 47 -95 -14 -14
-34 -16 -116 -13 l-98 3 -45 -45 c-44 -44 -45 -47 -39 -93 l7 -47 153 0 c146
0 154 1 154 19 0 11 -4 31 -9 44 -17 44 7 71 68 79 62 7 96 34 113 89 13 45 1
84 -38 120 -24 23 -33 72 -14 84 5 3 14 22 19 42 26 94 -81 187 -164 141z"/>
<path d="M4310 6223 c-36 -14 -72 -48 -91 -86 -17 -33 -20 -52 -16 -97 4 -30
2 -61 -2 -69 -5 -8 -35 -18 -67 -22 -79 -11 -134 -55 -150 -121 l-6 -28 356 0
356 0 0 33 c0 45 19 107 43 140 19 28 19 31 4 63 -24 49 -70 74 -139 74 -56 0
-58 1 -87 44 -17 24 -46 51 -65 60 -33 15 -105 20 -136 9z"/>
<path d="M5861 6220 c-59 -14 -85 -41 -92 -96 -5 -45 -3 -52 28 -88 46 -55 73
-116 80 -181 l6 -55 168 0 169 0 0 28 c0 15 -11 51 -25 79 -20 44 -32 57 -72
75 -46 22 -48 25 -56 78 -16 113 -105 183 -206 160z"/>
<path d="M3805 5628 c54 -548 354 -1018 813 -1277 l74 -41 708 0 708 0 74 41
c408 230 702 643 787 1106 11 59 22 136 26 171 l6 62 -1601 0 -1601 0 6 -62z"/>
<path d="M4730 4105 l0 -95 670 0 670 0 0 95 0 95 -670 0 -670 0 0 -95z"/>
</g>
</svg>
