<?xml version="1.0" standalone="no"?>
<!DOCTYPE svg PUBLIC "-//W3C//DTD SVG 20010904//EN"
 "http://www.w3.org/TR/2001/REC-SVG-20010904/DTD/svg10.dtd">
<svg version="1.0" xmlns="http://www.w3.org/2000/svg"
 width="1080.000000pt" height="1080.000000pt" viewBox="0 0 1080.000000 1080.000000"
 preserveAspectRatio="xMidYMid meet">

<g transform="translate(0.000000,1080.000000) scale(0.100000,-0.100000)"
fill="#000000" stroke="none">
<path d="M0 5400 l0 -5400 5400 0 5400 0 0 5400 0 5400 -5400 0 -5400 0 0
-5400z m6073 1637 c13 -9 32 -87 74 -310 l57 -297 273 0 c260 0 274 -1 293
-20 20 -20 20 -33 20 -1318 0 -1158 -2 -1300 -16 -1320 l-15 -22 -1026 0
c-941 0 -1028 1 -1045 17 -16 14 -18 33 -18 156 l0 139 -25 -6 c-63 -16 -111
-17 -129 -3 -22 16 -1 -87 -297 1465 -115 607 -207 1112 -204 1122 4 11 14 24
24 29 9 5 221 49 471 96 250 48 685 131 965 185 281 54 526 99 546 99 19 1 43
-5 52 -12z"/>
<path d="M5068 6736 c-493 -94 -899 -174 -903 -178 -5 -5 424 -2294 441 -2351
4 -13 14 -17 32 -15 l27 3 3 1099 c2 1006 3 1101 19 1118 15 17 51 18 695 18
l678 0 0 22 c0 33 -83 458 -89 457 -3 0 -410 -78 -903 -173z"/>
<path d="M4800 5090 l0 -1210 930 0 930 0 -2 1208 -3 1207 -927 3 -928 2 0
-1210z m1690 1060 c19 -19 20 -33 20 -325 0 -292 -1 -306 -20 -325 -20 -20
-33 -20 -758 -20 -651 0 -740 2 -760 16 -22 15 -22 16 -22 326 0 276 2 314 17
330 15 17 52 18 760 18 730 0 743 0 763 -20z m-872 -870 c22 -21 22 -25 22
-325 0 -292 -1 -306 -20 -325 -19 -19 -33 -20 -323 -20 -258 0 -306 2 -325 16
-22 15 -22 16 -22 329 0 313 0 314 22 329 19 14 67 16 323 16 289 0 302 -1
323 -20z m872 0 c24 -24 26 -57 4 -88 -15 -22 -17 -22 -304 -22 -287 0 -289 0
-304 22 -22 31 -20 64 4 88 19 19 33 20 300 20 267 0 281 -1 300 -20z m0 -280
c11 -11 20 -31 20 -45 0 -14 -9 -34 -20 -45 -18 -18 -33 -20 -172 -20 -84 0
-158 4 -164 8 -20 13 -35 52 -29 72 15 47 28 50 191 50 141 0 156 -2 174 -20z
m4 -282 c22 -31 20 -64 -4 -88 -19 -19 -33 -20 -282 -20 -229 0 -264 2 -280
17 -22 20 -23 70 -1 95 15 17 37 18 284 18 265 0 268 0 283 -22z m-4 -328 c11
-11 20 -31 20 -45 0 -14 -9 -34 -20 -45 -20 -20 -33 -20 -762 -20 -676 0 -743
1 -760 17 -22 20 -23 70 -1 95 15 17 52 18 760 18 730 0 743 0 763 -20z m-6
-241 c32 -25 35 -68 5 -95 -20 -18 -49 -19 -748 -22 -528 -2 -733 1 -754 9
-46 19 -49 101 -4 119 12 5 347 9 748 9 720 1 727 1 753 -20z"/>
<path d="M5082 5828 l3 -213 645 0 645 0 0 210 0 210 -648 3 -647 2 2 -212z"/>
<path d="M5087 5164 c-4 -4 -7 -101 -7 -216 l0 -208 213 2 212 3 0 210 0 210
-206 3 c-113 1 -208 -1 -212 -4z"/>
</g>
</svg>
