<?xml version="1.0" standalone="no"?>
<!DOCTYPE svg PUBLIC "-//W3C//DTD SVG 20010904//EN"
 "http://www.w3.org/TR/2001/REC-SVG-20010904/DTD/svg10.dtd">
<svg version="1.0" xmlns="http://www.w3.org/2000/svg"
 width="1080.000000pt" height="1080.000000pt" viewBox="0 0 1080.000000 1080.000000"
 preserveAspectRatio="xMidYMid meet">

<g transform="translate(0.000000,1080.000000) scale(0.100000,-0.100000)"
fill="#000000" stroke="none">
<path d="M0 5400 l0 -5400 5400 0 5400 0 0 5400 0 5400 -5400 0 -5400 0 0
-5400z m5297 801 c-160 -241 -295 -433 -298 -427 -3 6 -23 80 -44 164 -22 89
-43 156 -51 159 -7 3 -83 -5 -169 -17 -86 -12 -160 -20 -166 -18 -16 5 342
531 380 555 33 23 39 23 337 23 l304 0 -293 -439z m651 411 c24 -18 52 -63
108 -173 41 -83 82 -153 90 -156 9 -3 36 4 60 15 24 12 44 19 44 16 0 -8 -170
-476 -178 -490 -5 -9 -50 1 -167 37 -88 28 -205 64 -260 81 l-100 30 48 25
c26 13 50 30 53 37 3 8 -31 86 -75 175 l-81 161 91 136 90 136 122 -4 c109 -3
126 -5 155 -26z m609 -1109 c149 -260 158 -280 157 -327 -1 -45 -17 -84 -131
-310 l-130 -259 -262 457 c-145 251 -262 458 -260 460 2 2 75 -13 162 -32 86
-19 163 -32 170 -29 7 2 36 77 66 166 29 88 57 159 61 156 4 -3 79 -130 167
-282z m-1799 -83 c40 -135 72 -249 72 -253 0 -5 -20 3 -44 17 -25 14 -50 24
-58 21 -7 -3 -53 -75 -102 -160 l-88 -155 -167 0 -166 0 -57 88 c-61 94 -77
147 -58 197 6 17 45 90 87 163 41 73 73 139 70 147 -4 8 -25 24 -47 35 -23 12
-39 24 -36 27 10 11 511 131 517 124 3 -3 38 -116 77 -251z m1117 -577 c5 -23
7 -23 193 -23 l187 0 81 -143 82 -142 -40 -80 c-84 -168 -97 -174 -324 -175
-119 0 -164 -3 -172 -13 -6 -7 -12 -34 -14 -61 l-3 -48 -180 191 c-99 105
-180 195 -180 200 0 5 81 95 180 201 l180 192 3 -38 c1 -22 5 -49 7 -61z
m-565 -29 c0 -3 -49 -60 -110 -126 -60 -66 -110 -126 -110 -133 0 -8 50 -70
110 -139 61 -68 110 -127 110 -130 0 -10 -623 -7 -659 4 -19 5 -45 20 -59 32
-22 20 -332 481 -332 493 0 3 236 5 525 5 289 0 525 -3 525 -6z"/>
</g>
</svg>
