<?xml version="1.0" standalone="no"?>
<!DOCTYPE svg PUBLIC "-//W3C//DTD SVG 20010904//EN"
 "http://www.w3.org/TR/2001/REC-SVG-20010904/DTD/svg10.dtd">
<svg version="1.0" xmlns="http://www.w3.org/2000/svg"
 width="300.000000pt" height="300.000000pt" viewBox="0 0 300.000000 300.000000"
 preserveAspectRatio="xMidYMid meet">
<metadata>
Created by potrace 1.10, written by Peter Selinger 2001-2011
</metadata>
<g transform="translate(0.000000,300.000000) scale(0.100000,-0.100000)"
fill="#000000" stroke="none">
<path d="M1383 1952 c-104 -37 -166 -95 -217 -202 -27 -57 -31 -75 -30 -145 0
-57 7 -95 22 -132 64 -156 286 -443 342 -443 29 0 101 73 191 193 134 180 185
299 175 406 -12 130 -95 250 -212 306 -78 37 -193 45 -271 17z m260 -47 c67
-31 130 -98 165 -173 20 -44 26 -73 26 -128 0 -64 -4 -81 -42 -157 -66 -133
-258 -387 -292 -387 -34 0 -226 254 -292 387 -38 76 -42 93 -42 157 0 151 108
288 258 327 56 15 160 2 219 -26z"/>
<path d="M1450 1870 c-88 -19 -159 -75 -196 -155 -38 -81 -33 -154 16 -251 33
-67 115 -185 207 -299 l23 -27 27 33 c72 84 167 221 203 293 34 66 40 88 40
140 0 138 -102 252 -240 268 -25 3 -61 3 -80 -2z m125 -41 c61 -17 139 -101
155 -168 21 -87 4 -137 -96 -291 -76 -116 -127 -176 -142 -166 -12 7 -139 176
-161 216 -92 159 -92 244 -2 342 67 72 148 94 246 67z"/>
<path d="M1435 1751 c-49 -22 -73 -48 -89 -96 -36 -104 30 -204 140 -213 182
-15 247 225 83 308 -47 25 -82 25 -134 1z m136 -39 c59 -34 79 -133 38 -186
-80 -102 -239 -54 -239 73 0 109 105 168 201 113z"/>
<path d="M1450 1650 c-29 -29 -26 -74 6 -99 15 -12 34 -21 44 -21 10 0 29 9
44 21 50 40 21 119 -44 119 -17 0 -39 -9 -50 -20z m75 -30 c11 -17 -6 -50 -25
-50 -19 0 -36 33 -25 50 3 5 15 10 25 10 10 0 22 -5 25 -10z"/>
</g>
</svg>
